PathFileType	4	(X/Y/Z)	s04c0001.trc
DataRate	CameraRate	NumFrames	NumMarkers	Units	OrigDataRate	OrigDataStartFrame	OrigNumFrames
200	200	4	49	mm	200	1500	2000
Frame#	Time	racr			lacr			c7			jug			rlel			rdr			llel			ldr			s2			lic			ric			lasi			rasi			rpsi			lpsi			rgt			lgt			rth1			rth2			rth3			rth4			rlfc			rmfc			rsh1			rsh2			rsh3			rsh4			rlmal			rmmal			rcal			rtoe			rmt5			rmt1			lth1			lth2			lth4			lth3			llfc			lmfc			lsh1			lsh2			lsh3			lsh4			llmal			lmmal			lcal			ltoe			lmt1			lmt5			
		X1	Y1	Z1	X2	Y2	Z2	X3	Y3	Z3	X4	Y4	Z4	X5	Y5	Z5	X6	Y6	Z6	X7	Y7	Z7	X8	Y8	Z8	X9	Y9	Z9	X10	Y10	Z10	X11	Y11	Z11	X12	Y12	Z12	X13	Y13	Z13	X14	Y14	Z14	X15	Y15	Z15	X16	Y16	Z16	X17	Y17	Z17	X18	Y18	Z18	X19	Y19	Z19	X20	Y20	Z20	X21	Y21	Z21	X22	Y22	Z22	X23	Y23	Z23	X24	Y24	Z24	X25	Y25	Z25	X26	Y26	Z26	X27	Y27	Z27	X28	Y28	Z28	X29	Y29	Z29	X30	Y30	Z30	X31	Y31	Z31	X32	Y32	Z32	X33	Y33	Z33	X34	Y34	Z34	X35	Y35	Z35	X36	Y36	Z36	X37	Y37	Z37	X38	Y38	Z38	X39	Y39	Z39	X40	Y40	Z40	X41	Y41	Z41	X42	Y42	Z42	X43	Y43	Z43	X44	Y44	Z44	X45	Y45	Z45	X46	Y46	Z46	X47	Y47	Z47	X48	Y48	Z48	X49	Y49	Z49	
1500	7.5000	193.501358	1563.142090	287.111511	211.903824	1558.300171	-80.214729	136.058670	1591.126221	88.834473	271.159546	1529.052368	99.977402	115.595856	1224.282837	384.140747	228.504868	980.860352	490.416290	163.632401	1242.160522	-187.782074	294.005432	978.470764	-266.545135	76.267128	1055.154419	99.609818	250.254410	1111.463135	-47.021812	213.599548	1100.322510	275.460236	297.877716	1055.573975	6.262406	280.249664	1058.949951	233.769485	93.548569	1089.628174	144.562454	95.376350	1085.344360	65.811829	178.435791	1000.412659	279.337524	200.300354	955.796570	-65.467468	191.152100	864.978027	300.636963	204.345917	778.085571	290.465179	175.784195	698.460938	280.519043	240.154236	776.856812	280.401886	158.541092	547.964294	250.164444	165.374313	525.693970	139.964401	108.733734	426.265686	268.448853	123.935692	336.659424	260.171814	90.416969	257.741669	243.263748	160.096893	335.600983	246.129974	89.398643	103.771248	231.472321	138.923340	111.528275	159.371719	47.831779	68.564774	167.790527	314.221130	83.009071	304.845245	232.290222	52.638821	326.727905	279.553070	49.733170	227.773895	202.571609	862.453064	-79.070229	220.569733	777.305115	-77.006485	256.720306	775.684326	-66.141495	193.008698	692.791565	-71.639175	169.839691	552.389893	-53.271408	194.652100	522.226318	51.344612	151.934555	424.506622	-79.967926	173.664566	340.431824	-67.667221	149.467087	254.760300	-67.457352	202.837326	341.601227	-41.419086	147.108810	105.237144	-63.735970	154.866791	100.215492	21.988359	80.120132	77.409554	-14.404465	377.125366	82.656258	-57.721481	312.986328	54.833702	0.048868	302.302551	43.067337	-110.997589	
1501	7.5050	193.445648	1563.146484	287.109070	211.842072	1558.294067	-80.206924	136.001266	1591.132080	88.825432	271.110840	1529.046265	99.981651	115.543190	1224.265381	384.132690	228.478485	980.853333	490.435852	163.578110	1242.143188	-187.769531	293.947052	978.457214	-266.504395	76.382553	1054.966797	99.848106	250.215729	1111.461914	-47.020958	213.554794	1100.337036	275.455048	297.847168	1055.573486	6.250763	280.208252	1058.956055	233.781815	93.539131	1089.617432	144.567337	95.343849	1085.333008	65.811386	178.400391	1000.407715	279.354553	200.267685	955.791443	-65.467278	191.137863	864.973999	300.636200	204.338974	778.092163	290.460968	175.777161	698.434326	280.523651	240.136520	776.840759	280.404236	158.545120	547.954102	250.152237	165.347610	525.694458	139.959976	108.743744	426.264038	268.450195	123.954033	336.670898	260.180176	90.410492	257.747284	243.268707	160.095001	335.596039	246.148743	89.416763	103.767845	231.476364	138.926575	111.534958	159.356750	47.834061	68.571609	167.794662	314.222443	83.014343	304.838043	232.311493	52.639477	326.728149	279.552185	49.727745	227.763809	202.526764	862.463806	-79.071068	220.530914	777.323242	-77.014938	256.702240	775.681030	-66.131363	192.989655	692.798523	-71.640205	169.822540	552.393188	-53.269867	194.648178	522.218933	51.352764	151.918655	424.527710	-79.966110	173.656784	340.432556	-67.674461	149.465057	254.761566	-67.472443	202.848312	341.599030	-41.405457	147.086441	105.263557	-63.733742	154.855865	100.235710	21.987497	80.133011	77.405426	-14.393549	377.114380	82.655556	-57.717163	312.990967	54.839878	0.043371	302.298798	43.074104	-110.996758	
1502	7.5100	193.376785	1563.129395	287.105103	211.798538	1558.276855	-80.211540	135.948914	1591.126465	88.822540	271.058289	1529.052124	99.983559	115.495491	1224.247559	384.156097	228.449448	980.864014	490.463318	163.537781	1242.134888	-187.754181	293.897461	978.435730	-266.460938	76.344521	1054.953125	99.872108	250.173126	1111.462402	-47.017235	213.556961	1100.350952	275.474060	297.805450	1055.575317	6.262153	280.167786	1058.951294	233.788544	93.500000	1089.622559	144.561935	95.305702	1085.329956	65.811890	178.365845	1000.414917	279.349701	200.241531	955.787354	-65.463058	191.133224	864.960876	300.636261	204.317078	778.096802	290.475220	175.754532	698.448730	280.517242	240.132874	776.861816	280.408905	158.537796	547.956177	250.162262	165.345459	525.673645	139.964218	108.722198	426.267517	268.455383	123.942375	336.647369	260.174347	90.421585	257.721191	243.263382	160.081879	335.595825	246.141876	89.399605	103.770576	231.471664	138.918976	111.527328	159.362915	47.844852	68.562309	167.811935	314.217133	83.036003	304.836639	232.311371	52.643551	326.716644	279.560455	49.725948	227.765915	202.510254	862.459229	-79.072914	220.537399	777.306824	-77.015419	256.690430	775.696167	-66.118088	192.980530	692.785767	-71.621948	169.803040	552.387268	-53.278545	194.620529	522.215515	51.360088	151.915878	424.500214	-79.969086	173.649765	340.436768	-67.668755	149.450943	254.758621	-67.467438	202.834503	341.586609	-41.403122	147.108749	105.237198	-63.735928	154.878723	100.234375	21.969561	80.129868	77.413483	-14.401111	377.114380	82.655579	-57.717152	312.991821	54.834362	0.051517	302.325195	43.059177	-110.974091	
1503	7.5150	193.306900	1563.137939	287.102417	211.734680	1558.278198	-80.208366	135.871826	1591.125732	88.828972	270.990448	1529.048950	99.991951	115.454315	1224.243530	384.149963	228.441620	980.865662	490.468079	163.476013	1242.136475	-187.732803	293.848389	978.423279	-266.416138	76.303406	1054.952026	99.867485	250.135117	1111.463867	-47.037712	213.490463	1100.348389	275.452179	297.764557	1055.575928	6.260622	280.142822	1058.958130	233.775558	93.474922	1089.613525	144.560440	95.272339	1085.326172	65.816093	178.329971	1000.418274	279.363373	200.210831	955.783691	-65.472466	191.083832	864.979736	300.626160	204.274460	778.094177	290.466095	175.732803	698.435913	280.523773	240.122375	776.865845	280.411469	158.523270	547.963745	250.163040	165.335571	525.689331	139.959167	108.719269	426.256561	268.451019	123.919212	336.650391	260.175995	90.410019	257.724579	243.267548	160.083191	335.575409	246.125839	89.400482	103.769012	231.473831	138.927582	111.513924	159.365906	47.829124	68.556686	167.796539	314.223419	83.026726	304.835114	232.292572	52.646580	326.714966	279.543701	49.732540	227.753494	202.495972	862.460693	-79.063576	220.498581	777.324951	-77.023872	256.655701	775.697510	-66.125153	192.966522	692.816223	-71.637375	169.793488	552.381714	-53.259602	194.610840	522.218018	51.356895	151.909073	424.522552	-79.956001	173.644928	340.440796	-67.664940	149.443619	254.751968	-67.460052	202.825394	341.598846	-41.417431	147.108719	105.237221	-63.735905	154.874481	100.226639	21.972401	80.125755	77.415482	-14.410725	377.114380	82.655602	-57.717140	312.998474	54.837444	0.054789	302.299561	43.076778	-110.985649	
